<svg width="130" height="130" viewBox="0 0 130 130" fill="none" xmlns="http://www.w3.org/2000/svg">
<rect width="130" height="130" rx="65" fill="#7D4858"/>
<rect x="0.5" y="0.5" width="129" height="129" rx="64.5" stroke="black" stroke-opacity="0.1"/>
<path d="M37.5854 58.22C38.2254 58.22 38.8014 58.2573 39.3134 58.332C39.836 58.4067 40.3694 58.5667 40.9134 58.812C41.4574 59.0467 41.9107 59.3667 42.2734 59.772C42.636 60.1667 42.9347 60.7107 43.1694 61.404C43.404 62.0973 43.5214 62.9133 43.5214 63.852C43.5214 64.7907 43.404 65.6067 43.1694 66.3C42.9347 66.9933 42.636 67.5427 42.2734 67.948C41.9107 68.3427 41.4574 68.6627 40.9134 68.908C40.3694 69.1533 39.836 69.3133 39.3134 69.388C38.8014 69.4627 38.2254 69.5 37.5854 69.5H33.6494V58.22H37.5854ZM37.5854 67.708C38.0654 67.708 38.46 67.692 38.7694 67.66C39.0894 67.628 39.436 67.5373 39.8094 67.388C40.1827 67.2387 40.476 67.036 40.6894 66.78C40.9134 66.5133 41.1 66.1347 41.2494 65.644C41.3987 65.1427 41.4734 64.5453 41.4734 63.852C41.4734 63.2653 41.4254 62.7533 41.3294 62.316C41.2334 61.8787 41.0894 61.5267 40.8974 61.26C40.7054 60.9827 40.5027 60.7587 40.2894 60.588C40.076 60.4173 39.804 60.2947 39.4734 60.22C39.1427 60.1347 38.844 60.0813 38.5774 60.06C38.3107 60.028 37.98 60.012 37.5854 60.012H35.7134V67.708H37.5854ZM45.1494 69.5V58.22H52.7814V60.012H47.2134V62.956H51.9814V64.748H47.2134V67.708H52.7814V69.5H45.1494ZM63.7795 66.492C63.7795 68.604 62.2328 69.66 59.1395 69.66C57.2088 69.66 55.8275 69.2813 54.9955 68.524C54.1635 67.7667 53.7475 66.6573 53.7475 65.196H55.8115C55.8115 66.2093 56.0728 66.908 56.5955 67.292C57.1288 67.676 57.9928 67.868 59.1875 67.868C60.0622 67.868 60.7022 67.7613 61.1075 67.548C61.5128 67.3347 61.7155 66.9987 61.7155 66.54C61.7155 66.412 61.6995 66.2947 61.6675 66.188C61.6355 66.0707 61.5768 65.964 61.4915 65.868C61.4062 65.772 61.3208 65.6867 61.2355 65.612C61.1608 65.5267 61.0435 65.4467 60.8835 65.372C60.7235 65.2867 60.5902 65.2173 60.4835 65.164C60.3768 65.1107 60.2168 65.0467 60.0035 64.972C59.7902 64.8973 59.6248 64.844 59.5075 64.812C59.3902 64.7693 59.2035 64.7107 58.9475 64.636C58.6915 64.5507 58.5048 64.492 58.3875 64.46C57.9075 64.3 57.5342 64.172 57.2675 64.076C57.0008 63.98 56.6755 63.852 56.2915 63.692C55.9182 63.532 55.6302 63.3773 55.4275 63.228C55.2355 63.068 55.0328 62.876 54.8195 62.652C54.6168 62.428 54.4728 62.1773 54.3875 61.9C54.3022 61.612 54.2595 61.2973 54.2595 60.956C54.2595 60.028 54.6168 59.3133 55.3315 58.812C56.0462 58.3107 57.1075 58.06 58.5155 58.06C60.1155 58.06 61.3155 58.4387 62.1155 59.196C62.9155 59.9427 63.3155 60.8813 63.3155 62.012H61.2515C61.2515 60.572 60.3395 59.852 58.5155 59.852C57.0542 59.852 56.3235 60.236 56.3235 61.004C56.3235 61.3773 56.4835 61.6707 56.8035 61.884C57.1235 62.0973 57.7582 62.3587 58.7075 62.668C60.1582 63.148 61.1022 63.4947 61.5395 63.708C63.0222 64.4227 63.7688 65.3507 63.7795 66.492ZM71.8445 60.012H69.3005V67.708H71.8445V69.5H64.6925V67.708H67.2365V60.012H64.6925V58.22H71.8445V60.012ZM72.4269 63.852C72.4269 62.156 72.9389 60.7693 73.9629 59.692C74.9975 58.604 76.3309 58.06 77.9629 58.06C79.3602 58.06 80.5175 58.4493 81.4349 59.228C82.3629 59.996 82.9122 61.004 83.0829 62.252H81.0189C80.8909 61.4627 80.5815 60.8653 80.0909 60.46C79.6002 60.0547 78.8909 59.852 77.9629 59.852C76.8429 59.852 75.9842 60.1987 75.3869 60.892C74.7895 61.5747 74.4909 62.5613 74.4909 63.852C74.4909 66.5293 75.5309 67.868 77.6109 67.868C78.5282 67.868 79.2215 67.6227 79.6909 67.132C80.1709 66.6307 80.4055 65.884 80.3949 64.892H77.2909V63.324H83.0509C83.8509 63.324 84.2509 63.7133 84.2509 64.492V69.5H82.1869V65.484L82.5709 63.852H82.0269C82.0162 65.7293 81.6375 67.1693 80.8909 68.172C80.1549 69.164 79.0402 69.66 77.5469 69.66C75.9149 69.66 74.6509 69.132 73.7549 68.076C72.8695 67.0093 72.4269 65.6013 72.4269 63.852ZM85.7431 69.5V58.22H89.8231L94.1271 68.972H94.6551L94.2871 67.628V58.22H96.3351V69.5H92.2551L87.9671 58.748H87.4391L87.8071 60.092V69.5H85.7431Z" fill="#FAFAFA"/>
</svg>
