<svg width="175" height="37" viewBox="0 0 175 37" fill="none" xmlns="http://www.w3.org/2000/svg">
<path d="M12.4091 36H0.0340909V1.09091H12.5114C16.0227 1.09091 19.0455 1.78977 21.5795 3.1875C24.1136 4.57386 26.0625 6.56818 27.4261 9.17045C28.8011 11.7727 29.4886 14.8864 29.4886 18.5114C29.4886 22.1477 28.8011 25.2727 27.4261 27.8864C26.0625 30.5 24.1023 32.5057 21.5455 33.9034C19 35.3011 15.9545 36 12.4091 36ZM7.41477 29.6761H12.1023C14.2841 29.6761 16.1193 29.2898 17.608 28.517C19.108 27.733 20.233 26.5227 20.983 24.8864C21.7443 23.2386 22.125 21.1136 22.125 18.5114C22.125 15.9318 21.7443 13.8239 20.983 12.1875C20.233 10.5511 19.1136 9.34659 17.625 8.57386C16.1364 7.80114 14.3011 7.41477 12.1193 7.41477H7.41477V29.6761ZM34.956 36V1.09091H58.4787V7.17614H42.3366V15.4943H57.2685V21.5795H42.3366V29.9148H58.5469V36H34.956ZM83.2841 11.1307C83.1477 9.75568 82.5625 8.6875 81.5284 7.92614C80.4943 7.16477 79.0909 6.78409 77.3182 6.78409C76.1136 6.78409 75.0966 6.95454 74.267 7.29545C73.4375 7.625 72.8011 8.08523 72.358 8.67614C71.9261 9.26705 71.7102 9.9375 71.7102 10.6875C71.6875 11.3125 71.8182 11.858 72.1023 12.3239C72.3977 12.7898 72.8011 13.1932 73.3125 13.5341C73.8239 13.8636 74.4148 14.1534 75.0852 14.4034C75.7557 14.642 76.4716 14.8466 77.233 15.017L80.3693 15.767C81.892 16.108 83.2898 16.5625 84.5625 17.1307C85.8352 17.6989 86.9375 18.3977 87.8693 19.2273C88.8011 20.0568 89.5227 21.0341 90.0341 22.1591C90.5568 23.2841 90.8239 24.5739 90.8352 26.0284C90.8239 28.1648 90.2784 30.017 89.1989 31.5852C88.1307 33.142 86.5852 34.3523 84.5625 35.2159C82.5511 36.0682 80.125 36.4943 77.2841 36.4943C74.4659 36.4943 72.0114 36.0625 69.9205 35.1989C67.8409 34.3352 66.2159 33.0568 65.0455 31.3636C63.8864 29.6591 63.2784 27.5511 63.2216 25.0398H70.3636C70.4432 26.2102 70.7784 27.1875 71.3693 27.9716C71.9716 28.7443 72.7727 29.3295 73.7727 29.7273C74.7841 30.1136 75.9261 30.3068 77.1989 30.3068C78.4489 30.3068 79.5341 30.125 80.4545 29.7614C81.3864 29.3977 82.108 28.892 82.6193 28.2443C83.1307 27.5966 83.3864 26.8523 83.3864 26.0114C83.3864 25.2273 83.1534 24.5682 82.6875 24.0341C82.233 23.5 81.5625 23.0455 80.6761 22.6705C79.8011 22.2955 78.7273 21.9545 77.4545 21.6477L73.6534 20.6932C70.7102 19.9773 68.3864 18.858 66.6818 17.3352C64.9773 15.8125 64.1307 13.7614 64.142 11.1818C64.1307 9.06818 64.6932 7.22159 65.8295 5.64205C66.9773 4.0625 68.5511 2.82955 70.5511 1.94318C72.5511 1.05682 74.8239 0.613635 77.3693 0.613635C79.9602 0.613635 82.2216 1.05682 84.1534 1.94318C86.0966 2.82955 87.608 4.0625 88.6875 5.64205C89.767 7.22159 90.3239 9.05114 90.358 11.1307H83.2841ZM103.18 1.09091V36H95.7997V1.09091H103.18ZM132.401 12.375C132.162 11.5455 131.827 10.8125 131.395 10.1761C130.963 9.52841 130.435 8.98295 129.81 8.53977C129.196 8.08523 128.491 7.73864 127.696 7.5C126.912 7.26136 126.043 7.14205 125.088 7.14205C123.304 7.14205 121.736 7.58523 120.384 8.47159C119.043 9.35795 117.997 10.6477 117.247 12.3409C116.497 14.0227 116.122 16.0795 116.122 18.5114C116.122 20.9432 116.491 23.0114 117.23 24.7159C117.969 26.4205 119.014 27.7216 120.366 28.6193C121.719 29.5057 123.315 29.9489 125.156 29.9489C126.827 29.9489 128.253 29.6534 129.435 29.0625C130.628 28.4602 131.537 27.6136 132.162 26.5227C132.798 25.4318 133.116 24.142 133.116 22.6534L134.616 22.875H125.616V17.3182H140.224V21.7159C140.224 24.7841 139.577 27.4205 138.281 29.625C136.986 31.8182 135.202 33.5114 132.929 34.7045C130.656 35.8864 128.054 36.4773 125.122 36.4773C121.849 36.4773 118.974 35.7557 116.497 34.3125C114.02 32.858 112.088 30.7955 110.702 28.125C109.327 25.4432 108.639 22.2614 108.639 18.5795C108.639 15.75 109.048 13.2273 109.866 11.0114C110.696 8.78409 111.855 6.89773 113.344 5.35227C114.832 3.80682 116.565 2.63068 118.543 1.82386C120.52 1.01704 122.662 0.613635 124.969 0.613635C126.946 0.613635 128.787 0.903408 130.491 1.48295C132.196 2.05114 133.707 2.85795 135.026 3.90341C136.355 4.94886 137.44 6.19318 138.281 7.63636C139.122 9.06818 139.662 10.6477 139.901 12.375H132.401ZM174.967 1.09091V36H168.592L153.405 14.0284H153.149V36H145.768V1.09091H152.246L167.314 23.0455H167.621V1.09091H174.967Z" fill="#FF3B82"/>
</svg>
