<svg width="130" height="130" viewBox="0 0 130 130" fill="none" xmlns="http://www.w3.org/2000/svg">
<rect width="130" height="130" rx="65" fill="#D9487D"/>
<rect x="0.5" y="0.5" width="129" height="129" rx="64.5" stroke="black" stroke-opacity="0.1"/>
<path d="M24.7307 58.22V60.012H20.9707V69.5H18.9067V60.012H15.1147V58.22H24.7307ZM26.0322 69.5V58.22H33.6642V60.012H28.0962V62.956H32.8642V64.748H28.0962V67.708H33.6642V69.5H26.0322ZM34.4659 63.852C34.4659 62.1773 34.9726 60.796 35.9859 59.708C36.9993 58.6093 38.3539 58.06 40.0499 58.06C41.5753 58.06 42.8126 58.4653 43.7619 59.276C44.7113 60.076 45.2713 61.1747 45.4419 62.572H43.3779C43.2499 61.6973 42.8926 61.0253 42.3059 60.556C41.7299 60.0867 40.9886 59.852 40.0819 59.852C38.9619 59.852 38.0873 60.2093 37.4579 60.924C36.8393 61.628 36.5299 62.604 36.5299 63.852C36.5299 65.1 36.8393 66.0813 37.4579 66.796C38.0873 67.5107 38.9619 67.868 40.0819 67.868C40.9886 67.868 41.7299 67.6333 42.3059 67.164C42.8926 66.684 43.2499 66.0067 43.3779 65.132H45.4419C45.2713 66.54 44.7113 67.6493 43.7619 68.46C42.8126 69.26 41.5753 69.66 40.0499 69.66C38.3539 69.66 36.9993 69.116 35.9859 68.028C34.9726 66.9293 34.4659 65.5373 34.4659 63.852ZM55.1758 58.22H57.2238V69.5H55.1758V64.876H49.1118V69.5H47.0478V58.22H49.1118V63.084H55.1758V58.22ZM72.8814 69.74L71.2494 70.844L69.4094 68.476C68.2148 69.3293 66.7588 69.756 65.0414 69.756C63.3561 69.756 62.0068 69.3827 60.9934 68.636C59.9801 67.8787 59.4734 66.8227 59.4734 65.468C59.4734 64.412 59.7881 63.596 60.4174 63.02C61.0574 62.4333 61.8094 62.14 62.6734 62.14C63.5054 62.14 64.1934 62.444 64.7374 63.052V62.524L62.1294 59.196L62.1134 58.22H70.7214V60.012H64.9454L69.4894 65.58C70.0761 64.556 70.3694 63.292 70.3694 61.788H72.4174C72.4174 63.9533 71.8734 65.7453 70.7854 67.164L72.8814 69.74ZM65.0414 67.964C66.3214 67.964 67.3881 67.644 68.2414 67.004L66.7854 65.132C66.3161 64.524 65.8521 64.092 65.3934 63.836C64.9454 63.58 64.4228 63.452 63.8254 63.452C63.1534 63.452 62.6041 63.6387 62.1774 64.012C61.7508 64.3747 61.5374 64.8813 61.5374 65.532C61.5374 66.3213 61.8414 66.924 62.4494 67.34C63.0574 67.756 63.9214 67.964 65.0414 67.964ZM79.0619 58.22C79.7019 58.22 80.2779 58.2573 80.7899 58.332C81.3126 58.4067 81.8459 58.5667 82.3899 58.812C82.9339 59.0467 83.3873 59.3667 83.7499 59.772C84.1126 60.1667 84.4113 60.7107 84.6459 61.404C84.8806 62.0973 84.9979 62.9133 84.9979 63.852C84.9979 64.7907 84.8806 65.6067 84.6459 66.3C84.4113 66.9933 84.1126 67.5427 83.7499 67.948C83.3873 68.3427 82.9339 68.6627 82.3899 68.908C81.8459 69.1533 81.3126 69.3133 80.7899 69.388C80.2779 69.4627 79.7019 69.5 79.0619 69.5H75.1259V58.22H79.0619ZM79.0619 67.708C79.5419 67.708 79.9366 67.692 80.2459 67.66C80.5659 67.628 80.9126 67.5373 81.2859 67.388C81.6593 67.2387 81.9526 67.036 82.1659 66.78C82.3899 66.5133 82.5766 66.1347 82.7259 65.644C82.8753 65.1427 82.9499 64.5453 82.9499 63.852C82.9499 63.2653 82.9019 62.7533 82.8059 62.316C82.7099 61.8787 82.5659 61.5267 82.3739 61.26C82.1819 60.9827 81.9793 60.7587 81.7659 60.588C81.5526 60.4173 81.2806 60.2947 80.9499 60.22C80.6193 60.1347 80.3206 60.0813 80.0539 60.06C79.7873 60.028 79.4566 60.012 79.0619 60.012H77.1899V67.708H79.0619ZM94.3842 69.5L93.2162 65.564H88.6402L87.4722 69.5H85.3922L88.8002 58.22H93.0402L96.4642 69.5H94.3842ZM89.1682 63.772H92.6722L91.1842 58.748H90.6562L89.1682 63.772ZM104.965 58.22V60.012H101.205V69.5H99.1411V60.012H95.3491V58.22H104.965ZM112.962 69.5L111.794 65.564H107.218L106.05 69.5H103.97L107.378 58.22H111.618L115.042 69.5H112.962ZM107.746 63.772H111.25L109.762 58.748H109.234L107.746 63.772Z" fill="#FAFAFA"/>
</svg>
