<svg width="733" height="97" viewBox="0 0 733 97" fill="none" xmlns="http://www.w3.org/2000/svg">
<path d="M0.545455 18.1364V1.90909H77V18.1364H48.5V95H29.0455V18.1364H0.545455ZM110.92 96.3636C103.739 96.3636 97.5568 94.9091 92.375 92C87.2235 89.0606 83.2538 84.9091 80.4659 79.5455C77.678 74.1515 76.2841 67.7727 76.2841 60.4091C76.2841 53.2273 77.678 46.9242 80.4659 41.5C83.2538 36.0758 87.178 31.8485 92.2386 28.8182C97.3295 25.7879 103.299 24.2727 110.148 24.2727C114.754 24.2727 119.042 25.0152 123.011 26.5C127.011 27.9545 130.496 30.1515 133.466 33.0909C136.466 36.0303 138.799 39.7273 140.466 44.1818C142.133 48.6061 142.966 53.7879 142.966 59.7273V65.0455H84.0114V53.0455H124.739C124.739 50.2576 124.133 47.7879 122.92 45.6364C121.708 43.4848 120.027 41.803 117.875 40.5909C115.754 39.3485 113.284 38.7273 110.466 38.7273C107.527 38.7273 104.92 39.4091 102.648 40.7727C100.405 42.1061 98.6477 43.9091 97.375 46.1818C96.1023 48.4242 95.4508 50.9242 95.4205 53.6818V65.0909C95.4205 68.5455 96.0568 71.5303 97.3295 74.0455C98.6326 76.5606 100.466 78.5 102.83 79.8636C105.193 81.2273 107.996 81.9091 111.239 81.9091C113.39 81.9091 115.36 81.6061 117.148 81C118.936 80.3939 120.466 79.4848 121.739 78.2727C123.011 77.0606 123.981 75.5758 124.648 73.8182L142.557 75C141.648 79.303 139.784 83.0606 136.966 86.2727C134.178 89.4545 130.572 91.9394 126.148 93.7273C121.754 95.4848 116.678 96.3636 110.92 96.3636ZM187.148 96.3636C179.996 96.3636 173.845 94.8485 168.693 91.8182C163.572 88.7576 159.633 84.5152 156.875 79.0909C154.148 73.6667 152.784 67.4242 152.784 60.3636C152.784 53.2121 154.163 46.9394 156.92 41.5455C159.708 36.1212 163.663 31.8939 168.784 28.8636C173.905 25.803 179.996 24.2727 187.057 24.2727C193.148 24.2727 198.481 25.3788 203.057 27.5909C207.633 29.803 211.254 32.9091 213.92 36.9091C216.587 40.9091 218.057 45.6061 218.33 51H200.057C199.542 47.5151 198.178 44.7121 195.966 42.5909C193.784 40.4394 190.92 39.3636 187.375 39.3636C184.375 39.3636 181.754 40.1818 179.511 41.8182C177.299 43.4242 175.572 45.7727 174.33 48.8636C173.087 51.9545 172.466 55.697 172.466 60.0909C172.466 64.5455 173.072 68.3333 174.284 71.4545C175.527 74.5758 177.269 76.9545 179.511 78.5909C181.754 80.2273 184.375 81.0455 187.375 81.0455C189.587 81.0455 191.572 80.5909 193.33 79.6818C195.117 78.7727 196.587 77.4545 197.739 75.7273C198.92 73.9697 199.693 71.8636 200.057 69.4091H218.33C218.027 74.7424 216.572 79.4394 213.966 83.5C211.39 87.5303 207.83 90.6818 203.284 92.9545C198.739 95.2273 193.36 96.3636 187.148 96.3636ZM250.091 54.6364V95H230.727V1.90909H249.545V37.5H250.364C251.939 33.3788 254.485 30.1515 258 27.8182C261.515 25.4545 265.924 24.2727 271.227 24.2727C276.076 24.2727 280.303 25.3333 283.909 27.4545C287.545 29.5455 290.364 32.5606 292.364 36.5C294.394 40.4091 295.394 45.0909 295.364 50.5455V95H276V54C276.03 49.697 274.939 46.3485 272.727 43.9545C270.545 41.5606 267.485 40.3636 263.545 40.3636C260.909 40.3636 258.576 40.9242 256.545 42.0455C254.545 43.1667 252.97 44.803 251.818 46.9545C250.697 49.0758 250.121 51.6364 250.091 54.6364ZM368.773 96.3636C362.348 96.3636 356.803 95.2121 352.136 92.9091C347.47 90.6061 343.879 87.4848 341.364 83.5455C338.879 79.5758 337.636 75.1515 337.636 70.2727C337.636 66.6364 338.364 63.4091 339.818 60.5909C341.273 57.7727 343.303 55.1818 345.909 52.8182C348.515 50.4242 351.545 48.0455 355 45.6818L373.045 33.8182C375.379 32.3333 377.091 30.7727 378.182 29.1364C379.273 27.4697 379.818 25.6667 379.818 23.7273C379.818 21.8788 379.076 20.1667 377.591 18.5909C376.106 17.0151 374 16.2424 371.273 16.2727C369.455 16.2727 367.879 16.6818 366.545 17.5C365.212 18.2879 364.167 19.3333 363.409 20.6364C362.682 21.9091 362.318 23.3333 362.318 24.9091C362.318 26.8485 362.864 28.8182 363.955 30.8182C365.045 32.8182 366.5 34.9394 368.318 37.1818C370.136 39.3939 372.121 41.7879 374.273 44.3636L418.409 95H398.227L361.409 54C358.985 51.2424 356.561 48.3636 354.136 45.3636C351.742 42.3333 349.742 39.1212 348.136 35.7273C346.53 32.303 345.727 28.5909 345.727 24.5909C345.727 20.0758 346.773 16.0151 348.864 12.4091C350.985 8.80303 353.955 5.95454 357.773 3.86363C361.591 1.74242 366.045 0.681816 371.136 0.681816C376.106 0.681816 380.394 1.69697 384 3.72727C387.636 5.72727 390.424 8.39394 392.364 11.7273C394.333 15.0303 395.318 18.6667 395.318 22.6364C395.318 27.0303 394.227 31.0152 392.045 34.5909C389.894 38.1364 386.864 41.3182 382.955 44.1364L363.955 57.8182C361.379 59.697 359.47 61.6212 358.227 63.5909C357.015 65.5303 356.409 67.3939 356.409 69.1818C356.409 71.3939 356.955 73.3788 358.045 75.1364C359.136 76.8939 360.682 78.2879 362.682 79.3182C364.682 80.3182 367.03 80.8182 369.727 80.8182C373 80.8182 376.227 80.0758 379.409 78.5909C382.621 77.0758 385.53 74.9394 388.136 72.1818C390.773 69.3939 392.879 66.0909 394.455 62.2727C396.03 58.4545 396.818 54.2273 396.818 49.5909H412.864C412.864 55.2879 412.242 60.4242 411 65C409.758 69.5455 408.03 73.5152 405.818 76.9091C403.606 80.2727 401.076 83.0303 398.227 85.1818C397.318 85.7576 396.439 86.303 395.591 86.8182C394.742 87.3333 393.864 87.8788 392.955 88.4545C389.5 91.2424 385.636 93.2576 381.364 94.5C377.121 95.7424 372.924 96.3636 368.773 96.3636ZM489.466 95H456.466V1.90909H489.739C499.102 1.90909 507.163 3.77273 513.92 7.5C520.678 11.197 525.875 16.5151 529.511 23.4545C533.178 30.3939 535.011 38.697 535.011 48.3636C535.011 58.0606 533.178 66.3939 529.511 73.3636C525.875 80.3333 520.648 85.6818 513.83 89.4091C507.042 93.1364 498.92 95 489.466 95ZM476.148 78.1364H488.648C494.466 78.1364 499.36 77.1061 503.33 75.0455C507.33 72.9545 510.33 69.7273 512.33 65.3636C514.36 60.9697 515.375 55.303 515.375 48.3636C515.375 41.4848 514.36 35.8636 512.33 31.5C510.33 27.1364 507.345 23.9242 503.375 21.8636C499.405 19.803 494.511 18.7727 488.693 18.7727H476.148V78.1364ZM569.136 96.3182C564.682 96.3182 560.712 95.5455 557.227 94C553.742 92.4242 550.985 90.1061 548.955 87.0455C546.955 83.9545 545.955 80.1061 545.955 75.5C545.955 71.6212 546.667 68.3636 548.091 65.7273C549.515 63.0909 551.455 60.9697 553.909 59.3636C556.364 57.7576 559.152 56.5455 562.273 55.7273C565.424 54.9091 568.727 54.3333 572.182 54C576.242 53.5758 579.515 53.1818 582 52.8182C584.485 52.4242 586.288 51.8485 587.409 51.0909C588.53 50.3333 589.091 49.2121 589.091 47.7273V47.4545C589.091 44.5758 588.182 42.3485 586.364 40.7727C584.576 39.197 582.03 38.4091 578.727 38.4091C575.242 38.4091 572.47 39.1818 570.409 40.7273C568.348 42.2424 566.985 44.1515 566.318 46.4545L548.409 45C549.318 40.7576 551.106 37.0909 553.773 34C556.439 30.8788 559.879 28.4848 564.091 26.8182C568.333 25.1212 573.242 24.2727 578.818 24.2727C582.697 24.2727 586.409 24.7273 589.955 25.6364C593.53 26.5455 596.697 27.9545 599.455 29.8636C602.242 31.7727 604.439 34.2273 606.045 37.2273C607.652 40.197 608.455 43.7576 608.455 47.9091V95H590.091V85.3182H589.545C588.424 87.5 586.924 89.4242 585.045 91.0909C583.167 92.7273 580.909 94.0152 578.273 94.9545C575.636 95.8636 572.591 96.3182 569.136 96.3182ZM574.682 82.9545C577.53 82.9545 580.045 82.3939 582.227 81.2727C584.409 80.1212 586.121 78.5758 587.364 76.6364C588.606 74.697 589.227 72.5 589.227 70.0455V62.6364C588.621 63.0303 587.788 63.3939 586.727 63.7273C585.697 64.0303 584.53 64.3182 583.227 64.5909C581.924 64.8333 580.621 65.0606 579.318 65.2727C578.015 65.4545 576.833 65.6212 575.773 65.7727C573.5 66.1061 571.515 66.6364 569.818 67.3636C568.121 68.0909 566.803 69.0758 565.864 70.3182C564.924 71.5303 564.455 73.0455 564.455 74.8636C564.455 77.5 565.409 79.5152 567.318 80.9091C569.258 82.2727 571.712 82.9545 574.682 82.9545ZM660.614 25.1818V39.7273H618.568V25.1818H660.614ZM628.114 8.45454H647.477V73.5455C647.477 75.3333 647.75 76.7273 648.295 77.7273C648.841 78.697 649.598 79.3788 650.568 79.7727C651.568 80.1667 652.72 80.3636 654.023 80.3636C654.932 80.3636 655.841 80.2879 656.75 80.1364C657.659 79.9545 658.356 79.8182 658.841 79.7273L661.886 94.1364C660.917 94.4394 659.553 94.7879 657.795 95.1818C656.038 95.6061 653.902 95.8636 651.386 95.9545C646.72 96.1364 642.629 95.5152 639.114 94.0909C635.629 92.6667 632.917 90.4545 630.977 87.4545C629.038 84.4545 628.083 80.6667 628.114 76.0909V8.45454ZM693.136 96.3182C688.682 96.3182 684.712 95.5455 681.227 94C677.742 92.4242 674.985 90.1061 672.955 87.0455C670.955 83.9545 669.955 80.1061 669.955 75.5C669.955 71.6212 670.667 68.3636 672.091 65.7273C673.515 63.0909 675.455 60.9697 677.909 59.3636C680.364 57.7576 683.152 56.5455 686.273 55.7273C689.424 54.9091 692.727 54.3333 696.182 54C700.242 53.5758 703.515 53.1818 706 52.8182C708.485 52.4242 710.288 51.8485 711.409 51.0909C712.53 50.3333 713.091 49.2121 713.091 47.7273V47.4545C713.091 44.5758 712.182 42.3485 710.364 40.7727C708.576 39.197 706.03 38.4091 702.727 38.4091C699.242 38.4091 696.47 39.1818 694.409 40.7273C692.348 42.2424 690.985 44.1515 690.318 46.4545L672.409 45C673.318 40.7576 675.106 37.0909 677.773 34C680.439 30.8788 683.879 28.4848 688.091 26.8182C692.333 25.1212 697.242 24.2727 702.818 24.2727C706.697 24.2727 710.409 24.7273 713.955 25.6364C717.53 26.5455 720.697 27.9545 723.455 29.8636C726.242 31.7727 728.439 34.2273 730.045 37.2273C731.652 40.197 732.455 43.7576 732.455 47.9091V95H714.091V85.3182H713.545C712.424 87.5 710.924 89.4242 709.045 91.0909C707.167 92.7273 704.909 94.0152 702.273 94.9545C699.636 95.8636 696.591 96.3182 693.136 96.3182ZM698.682 82.9545C701.53 82.9545 704.045 82.3939 706.227 81.2727C708.409 80.1212 710.121 78.5758 711.364 76.6364C712.606 74.697 713.227 72.5 713.227 70.0455V62.6364C712.621 63.0303 711.788 63.3939 710.727 63.7273C709.697 64.0303 708.53 64.3182 707.227 64.5909C705.924 64.8333 704.621 65.0606 703.318 65.2727C702.015 65.4545 700.833 65.6212 699.773 65.7727C697.5 66.1061 695.515 66.6364 693.818 67.3636C692.121 68.0909 690.803 69.0758 689.864 70.3182C688.924 71.5303 688.455 73.0455 688.455 74.8636C688.455 77.5 689.409 79.5152 691.318 80.9091C693.258 82.2727 695.712 82.9545 698.682 82.9545Z" fill="white"/>
</svg>
