<svg width="130" height="130" viewBox="0 0 130 130" fill="none" xmlns="http://www.w3.org/2000/svg">
<rect width="130" height="130" rx="65" fill="#BA4C73"/>
<rect x="0.5" y="0.5" width="129" height="129" rx="64.5" stroke="black" stroke-opacity="0.05"/>
<path d="M18.6726 60.012H16.1286V67.708H18.6726V69.5H11.5206V67.708H14.0646V60.012H11.5206V58.22H18.6726V60.012ZM20.3213 69.5V58.22H24.4013L28.7053 68.972H29.2333L28.8653 67.628V58.22H30.9133V69.5H26.8333L22.5453 58.748H22.0173L22.3853 60.092V69.5H20.3213ZM32.7431 69.5V58.22H36.8231L41.1271 68.972H41.6551L41.2871 67.628V58.22H43.3351V69.5H39.2551L34.9671 58.748H34.4391L34.8071 60.092V69.5H32.7431ZM46.3371 68.028C45.3345 66.9293 44.8331 65.5373 44.8331 63.852C44.8331 62.1667 45.3345 60.78 46.3371 59.692C47.3505 58.604 48.7051 58.06 50.4011 58.06C52.0971 58.06 53.4465 58.6093 54.4491 59.708C55.4518 60.796 55.9531 62.1773 55.9531 63.852C55.9531 65.5373 55.4518 66.9293 54.4491 68.028C53.4465 69.116 52.0971 69.66 50.4011 69.66C48.7051 69.66 47.3505 69.116 46.3371 68.028ZM47.7931 60.94C47.1958 61.6547 46.8971 62.6253 46.8971 63.852C46.8971 65.0787 47.1958 66.0547 47.7931 66.78C48.3905 67.5053 49.2598 67.868 50.4011 67.868C51.5425 67.868 52.4065 67.5053 52.9931 66.78C53.5905 66.0547 53.8891 65.0787 53.8891 63.852C53.8891 62.6253 53.5905 61.6547 52.9931 60.94C52.3958 60.2147 51.5318 59.852 50.4011 59.852C49.2598 59.852 48.3905 60.2147 47.7931 60.94ZM56.4313 58.22H58.5113L61.6953 68.972H62.2233L65.4233 58.22H67.5033L64.0793 69.5H59.8393L56.4313 58.22ZM75.2201 69.5L74.0521 65.564H69.4761L68.3081 69.5H66.2281L69.6361 58.22H73.8761L77.3001 69.5H75.2201ZM70.0041 63.772H73.5081L72.0201 58.748H71.4921L70.0041 63.772ZM85.801 58.22V60.012H82.041V69.5H79.977V60.012H76.185V58.22H85.801ZM94.407 60.012H91.863V67.708H94.407V69.5H87.255V67.708H89.799V60.012H87.255V58.22H94.407V60.012ZM96.4934 68.028C95.4907 66.9293 94.9894 65.5373 94.9894 63.852C94.9894 62.1667 95.4907 60.78 96.4934 59.692C97.5067 58.604 98.8614 58.06 100.557 58.06C102.253 58.06 103.603 58.6093 104.605 59.708C105.608 60.796 106.109 62.1773 106.109 63.852C106.109 65.5373 105.608 66.9293 104.605 68.028C103.603 69.116 102.253 69.66 100.557 69.66C98.8614 69.66 97.5067 69.116 96.4934 68.028ZM97.9494 60.94C97.352 61.6547 97.0534 62.6253 97.0534 63.852C97.0534 65.0787 97.352 66.0547 97.9494 66.78C98.5467 67.5053 99.416 67.868 100.557 67.868C101.699 67.868 102.563 67.5053 103.149 66.78C103.747 66.0547 104.045 65.0787 104.045 63.852C104.045 62.6253 103.747 61.6547 103.149 60.94C102.552 60.2147 101.688 59.852 100.557 59.852C99.416 59.852 98.5467 60.2147 97.9494 60.94ZM107.712 69.5V58.22H111.792L116.096 68.972H116.624L116.256 67.628V58.22H118.304V69.5H114.224L109.936 58.748H109.408L109.776 60.092V69.5H107.712Z" fill="#FAFAFA"/>
</svg>
