<svg width="630" height="37" viewBox="0 0 630 37" fill="none" xmlns="http://www.w3.org/2000/svg">
<path d="M7.41477 1.09091V36H0.0340909V1.09091H7.41477ZM42.6861 1.09091V36H36.3111L21.1236 14.0284H20.8679V36H13.4872V1.09091H19.9645L35.0327 23.0455H35.3395V1.09091H42.6861ZM77.983 1.09091V36H71.608L56.4205 14.0284H56.1648V36H48.7841V1.09091H55.2614L70.3295 23.0455H70.6364V1.09091H77.983ZM116.161 18.5455C116.161 22.3523 115.439 25.5909 113.996 28.2614C112.564 30.9318 110.609 32.9716 108.132 34.3807C105.666 35.7784 102.893 36.4773 99.8139 36.4773C96.7116 36.4773 93.9276 35.7727 91.4616 34.3636C88.9957 32.9545 87.0469 30.9148 85.6151 28.2443C84.1832 25.5739 83.4673 22.3409 83.4673 18.5455C83.4673 14.7386 84.1832 11.5 85.6151 8.82955C87.0469 6.15909 88.9957 4.125 91.4616 2.72727C93.9276 1.31818 96.7116 0.613635 99.8139 0.613635C102.893 0.613635 105.666 1.31818 108.132 2.72727C110.609 4.125 112.564 6.15909 113.996 8.82955C115.439 11.5 116.161 14.7386 116.161 18.5455ZM108.678 18.5455C108.678 16.0795 108.308 14 107.57 12.3068C106.842 10.6136 105.814 9.32955 104.484 8.45455C103.155 7.57955 101.598 7.14205 99.8139 7.14205C98.0298 7.14205 96.473 7.57955 95.1435 8.45455C93.8139 9.32955 92.7798 10.6136 92.0412 12.3068C91.3139 14 90.9503 16.0795 90.9503 18.5455C90.9503 21.0114 91.3139 23.0909 92.0412 24.7841C92.7798 26.4773 93.8139 27.7614 95.1435 28.6364C96.473 29.5114 98.0298 29.9489 99.8139 29.9489C101.598 29.9489 103.155 29.5114 104.484 28.6364C105.814 27.7614 106.842 26.4773 107.57 24.7841C108.308 23.0909 108.678 21.0114 108.678 18.5455ZM125.966 1.09091L134.403 27.6136H134.727L143.182 1.09091H151.364L139.33 36H129.818L117.767 1.09091H125.966ZM156.942 36H149.033L161.084 1.09091H170.595L182.629 36H174.72L165.976 9.06818H165.703L156.942 36ZM156.447 22.2784H175.129V28.0398H156.447V22.2784ZM181.236 7.17614V1.09091H209.906V7.17614H199.219V36H191.923V7.17614H181.236ZM222.009 1.09091V36H214.628V1.09091H222.009ZM260.161 18.5455C260.161 22.3523 259.439 25.5909 257.996 28.2614C256.564 30.9318 254.609 32.9716 252.132 34.3807C249.666 35.7784 246.893 36.4773 243.814 36.4773C240.712 36.4773 237.928 35.7727 235.462 34.3636C232.996 32.9545 231.047 30.9148 229.615 28.2443C228.183 25.5739 227.467 22.3409 227.467 18.5455C227.467 14.7386 228.183 11.5 229.615 8.82955C231.047 6.15909 232.996 4.125 235.462 2.72727C237.928 1.31818 240.712 0.613635 243.814 0.613635C246.893 0.613635 249.666 1.31818 252.132 2.72727C254.609 4.125 256.564 6.15909 257.996 8.82955C259.439 11.5 260.161 14.7386 260.161 18.5455ZM252.678 18.5455C252.678 16.0795 252.308 14 251.57 12.3068C250.842 10.6136 249.814 9.32955 248.484 8.45455C247.155 7.57955 245.598 7.14205 243.814 7.14205C242.03 7.14205 240.473 7.57955 239.143 8.45455C237.814 9.32955 236.78 10.6136 236.041 12.3068C235.314 14 234.95 16.0795 234.95 18.5455C234.95 21.0114 235.314 23.0909 236.041 24.7841C236.78 26.4773 237.814 27.7614 239.143 28.6364C240.473 29.5114 242.03 29.9489 243.814 29.9489C245.598 29.9489 247.155 29.5114 248.484 28.6364C249.814 27.7614 250.842 26.4773 251.57 24.7841C252.308 23.0909 252.678 21.0114 252.678 18.5455ZM294.827 1.09091V36H288.452L273.264 14.0284H273.009V36H265.628V1.09091H272.105L287.173 23.0455H287.48V1.09091H294.827ZM322.602 36.5114C320.193 36.5114 318.114 36.0795 316.364 35.2159C314.614 34.3523 313.267 33.1818 312.324 31.7045C311.392 30.2159 310.926 28.5568 310.926 26.7273C310.926 25.3636 311.199 24.1534 311.744 23.0966C312.29 22.0398 313.051 21.0682 314.028 20.1818C315.006 19.2841 316.142 18.392 317.438 17.5057L324.205 13.0568C325.08 12.5 325.722 11.9148 326.131 11.3011C326.54 10.6761 326.744 10 326.744 9.27273C326.744 8.57955 326.466 7.9375 325.909 7.34659C325.352 6.75568 324.562 6.46591 323.54 6.47727C322.858 6.47727 322.267 6.63068 321.767 6.9375C321.267 7.23295 320.875 7.625 320.591 8.11364C320.318 8.59091 320.182 9.125 320.182 9.71591C320.182 10.4432 320.386 11.1818 320.795 11.9318C321.205 12.6818 321.75 13.4773 322.432 14.3182C323.114 15.1477 323.858 16.0455 324.665 17.0114L341.216 36H333.648L319.841 20.625C318.932 19.5909 318.023 18.5114 317.114 17.3864C316.216 16.25 315.466 15.0455 314.864 13.7727C314.261 12.4886 313.96 11.0966 313.96 9.59659C313.96 7.90341 314.352 6.38068 315.136 5.02841C315.932 3.67614 317.045 2.60795 318.477 1.82386C319.909 1.02841 321.58 0.630681 323.489 0.630681C325.352 0.630681 326.96 1.01136 328.312 1.77273C329.676 2.52273 330.722 3.52273 331.449 4.77273C332.188 6.01136 332.557 7.375 332.557 8.86364C332.557 10.5114 332.148 12.0057 331.33 13.3466C330.523 14.6761 329.386 15.8693 327.92 16.9261L320.795 22.0568C319.83 22.7614 319.114 23.483 318.648 24.2216C318.193 24.9489 317.966 25.6477 317.966 26.3182C317.966 27.1477 318.17 27.892 318.58 28.5511C318.989 29.2102 319.568 29.733 320.318 30.1193C321.068 30.4943 321.949 30.6818 322.96 30.6818C324.188 30.6818 325.398 30.4034 326.591 29.8466C327.795 29.2784 328.886 28.4773 329.864 27.4432C330.852 26.3977 331.642 25.1591 332.233 23.7273C332.824 22.2955 333.119 20.7102 333.119 18.9716H339.136C339.136 21.108 338.903 23.0341 338.438 24.75C337.972 26.4545 337.324 27.9432 336.494 29.2159C335.665 30.4773 334.716 31.5114 333.648 32.3182C333.307 32.5341 332.977 32.7386 332.659 32.9318C332.341 33.125 332.011 33.3295 331.67 33.5455C330.375 34.5909 328.926 35.3466 327.324 35.8125C325.733 36.2784 324.159 36.5114 322.602 36.5114ZM362.868 1.09091V36H355.487V1.09091H362.868ZM368.94 1.09091H378.043L387.656 24.5455H388.065L397.679 1.09091H406.781V36H399.622V13.2784H399.332L390.298 35.8295H385.423L376.389 13.1932H376.099V36H368.94V1.09091ZM412.862 1.09091H421.964L431.578 24.5455H431.987L441.601 1.09091H450.703V36H443.544V13.2784H443.254L434.22 35.8295H429.345L420.311 13.1932H420.021V36H412.862V1.09091ZM456.784 36V1.09091H480.307V7.17614H464.165V15.4943H479.097V21.5795H464.165V29.9148H480.375V36H456.784ZM486.175 36V1.09091H499.947C502.584 1.09091 504.834 1.5625 506.697 2.50568C508.572 3.4375 509.999 4.76136 510.976 6.47727C511.964 8.18182 512.459 10.1875 512.459 12.4943C512.459 14.8125 511.959 16.8068 510.959 18.4773C509.959 20.1364 508.51 21.4091 506.612 22.2955C504.726 23.1818 502.442 23.625 499.76 23.625H490.538V17.6932H498.567C499.976 17.6932 501.146 17.5 502.078 17.1136C503.01 16.7273 503.703 16.1477 504.158 15.375C504.624 14.6023 504.857 13.642 504.857 12.4943C504.857 11.3352 504.624 10.358 504.158 9.5625C503.703 8.76704 503.004 8.16477 502.061 7.75568C501.129 7.33523 499.953 7.125 498.533 7.125H493.555V36H486.175ZM505.027 20.1136L513.703 36H505.555L497.067 20.1136H505.027ZM536.612 11.1307C536.476 9.75568 535.891 8.6875 534.857 7.92614C533.822 7.16477 532.419 6.78409 530.646 6.78409C529.442 6.78409 528.425 6.95454 527.595 7.29545C526.766 7.625 526.129 8.08523 525.686 8.67614C525.254 9.26705 525.038 9.9375 525.038 10.6875C525.016 11.3125 525.146 11.858 525.43 12.3239C525.726 12.7898 526.129 13.1932 526.641 13.5341C527.152 13.8636 527.743 14.1534 528.413 14.4034C529.084 14.642 529.8 14.8466 530.561 15.017L533.697 15.767C535.22 16.108 536.618 16.5625 537.891 17.1307C539.163 17.6989 540.266 18.3977 541.197 19.2273C542.129 20.0568 542.851 21.0341 543.362 22.1591C543.885 23.2841 544.152 24.5739 544.163 26.0284C544.152 28.1648 543.607 30.017 542.527 31.5852C541.459 33.142 539.913 34.3523 537.891 35.2159C535.879 36.0682 533.453 36.4943 530.612 36.4943C527.794 36.4943 525.339 36.0625 523.249 35.1989C521.169 34.3352 519.544 33.0568 518.374 31.3636C517.214 29.6591 516.607 27.5511 516.55 25.0398H523.692C523.771 26.2102 524.107 27.1875 524.697 27.9716C525.3 28.7443 526.101 29.3295 527.101 29.7273C528.112 30.1136 529.254 30.3068 530.527 30.3068C531.777 30.3068 532.862 30.125 533.783 29.7614C534.714 29.3977 535.436 28.892 535.947 28.2443C536.459 27.5966 536.714 26.8523 536.714 26.0114C536.714 25.2273 536.482 24.5682 536.016 24.0341C535.561 23.5 534.891 23.0455 534.004 22.6705C533.129 22.2955 532.055 21.9545 530.783 21.6477L526.982 20.6932C524.038 19.9773 521.714 18.858 520.01 17.3352C518.305 15.8125 517.459 13.7614 517.47 11.1818C517.459 9.06818 518.021 7.22159 519.158 5.64205C520.305 4.0625 521.879 2.82955 523.879 1.94318C525.879 1.05682 528.152 0.613635 530.697 0.613635C533.288 0.613635 535.55 1.05682 537.482 1.94318C539.425 2.82955 540.936 4.0625 542.016 5.64205C543.095 7.22159 543.652 9.05114 543.686 11.1307H536.612ZM556.509 1.09091V36H549.128V1.09091H556.509ZM594.661 18.5455C594.661 22.3523 593.939 25.5909 592.496 28.2614C591.064 30.9318 589.109 32.9716 586.632 34.3807C584.166 35.7784 581.393 36.4773 578.314 36.4773C575.212 36.4773 572.428 35.7727 569.962 34.3636C567.496 32.9545 565.547 30.9148 564.115 28.2443C562.683 25.5739 561.967 22.3409 561.967 18.5455C561.967 14.7386 562.683 11.5 564.115 8.82955C565.547 6.15909 567.496 4.125 569.962 2.72727C572.428 1.31818 575.212 0.613635 578.314 0.613635C581.393 0.613635 584.166 1.31818 586.632 2.72727C589.109 4.125 591.064 6.15909 592.496 8.82955C593.939 11.5 594.661 14.7386 594.661 18.5455ZM587.178 18.5455C587.178 16.0795 586.808 14 586.07 12.3068C585.342 10.6136 584.314 9.32955 582.984 8.45455C581.655 7.57955 580.098 7.14205 578.314 7.14205C576.53 7.14205 574.973 7.57955 573.643 8.45455C572.314 9.32955 571.28 10.6136 570.541 12.3068C569.814 14 569.45 16.0795 569.45 18.5455C569.45 21.0114 569.814 23.0909 570.541 24.7841C571.28 26.4773 572.314 27.7614 573.643 28.6364C574.973 29.5114 576.53 29.9489 578.314 29.9489C580.098 29.9489 581.655 29.5114 582.984 28.6364C584.314 27.7614 585.342 26.4773 586.07 24.7841C586.808 23.0909 587.178 21.0114 587.178 18.5455ZM629.327 1.09091V36H622.952L607.764 14.0284H607.509V36H600.128V1.09091H606.605L621.673 23.0455H621.98V1.09091H629.327Z" fill="#FF3B82"/>
</svg>
