<svg width="286" height="37" viewBox="0 0 286 37" fill="none" xmlns="http://www.w3.org/2000/svg">
<path d="M0.0340909 1.09091H9.13636L18.75 24.5455H19.1591L28.7727 1.09091H37.875V36H30.7159V13.2784H30.4261L21.392 35.8295H16.517L7.48295 13.1932H7.19318V36H0.0340909V1.09091ZM49.973 36H42.0639L54.1151 1.09091H63.6264L75.6605 36H67.7514L59.0071 9.06818H58.7344L49.973 36ZM49.4787 22.2784H68.1605V28.0398H49.4787V22.2784ZM79.8622 36V1.09091H93.6349C96.2713 1.09091 98.5213 1.5625 100.385 2.50568C102.26 3.4375 103.686 4.76136 104.663 6.47727C105.652 8.18182 106.146 10.1875 106.146 12.4943C106.146 14.8125 105.646 16.8068 104.646 18.4773C103.646 20.1364 102.197 21.4091 100.3 22.2955C98.4134 23.1818 96.1293 23.625 93.4474 23.625H84.2259V17.6932H92.2543C93.6634 17.6932 94.8338 17.5 95.7656 17.1136C96.6974 16.7273 97.3906 16.1477 97.8452 15.375C98.3111 14.6023 98.544 13.642 98.544 12.4943C98.544 11.3352 98.3111 10.358 97.8452 9.5625C97.3906 8.76704 96.6918 8.16477 95.7486 7.75568C94.8168 7.33523 93.6406 7.125 92.2202 7.125H87.2429V36H79.8622ZM98.7145 20.1136L107.391 36H99.2429L90.7543 20.1136H98.7145ZM111.362 36V1.09091H118.743V16.483H119.203L131.766 1.09091H140.612L127.658 16.7216L140.766 36H131.936L122.374 21.6477L118.743 26.0795V36H111.362ZM144.456 36V1.09091H167.979V7.17614H151.837V15.4943H166.768V21.5795H151.837V29.9148H168.047V36H144.456ZM172.517 7.17614V1.09091H201.188V7.17614H190.5V36H183.205V7.17614H172.517ZM213.29 1.09091V36H205.909V1.09091H213.29ZM248.561 1.09091V36H242.186L226.999 14.0284H226.743V36H219.362V1.09091H225.839L240.908 23.0455H241.214V1.09091H248.561ZM277.807 12.375C277.568 11.5455 277.233 10.8125 276.801 10.1761C276.369 9.52841 275.841 8.98295 275.216 8.53977C274.602 8.08523 273.898 7.73864 273.102 7.5C272.318 7.26136 271.449 7.14205 270.494 7.14205C268.71 7.14205 267.142 7.58523 265.79 8.47159C264.449 9.35795 263.403 10.6477 262.653 12.3409C261.903 14.0227 261.528 16.0795 261.528 18.5114C261.528 20.9432 261.898 23.0114 262.636 24.7159C263.375 26.4205 264.42 27.7216 265.773 28.6193C267.125 29.5057 268.722 29.9489 270.562 29.9489C272.233 29.9489 273.659 29.6534 274.841 29.0625C276.034 28.4602 276.943 27.6136 277.568 26.5227C278.205 25.4318 278.523 24.142 278.523 22.6534L280.023 22.875H271.023V17.3182H285.631V21.7159C285.631 24.7841 284.983 27.4205 283.688 29.625C282.392 31.8182 280.608 33.5114 278.335 34.7045C276.062 35.8864 273.46 36.4773 270.528 36.4773C267.256 36.4773 264.381 35.7557 261.903 34.3125C259.426 32.858 257.494 30.7955 256.108 28.125C254.733 25.4432 254.045 22.2614 254.045 18.5795C254.045 15.75 254.455 13.2273 255.273 11.0114C256.102 8.78409 257.261 6.89773 258.75 5.35227C260.239 3.80682 261.972 2.63068 263.949 1.82386C265.926 1.01704 268.068 0.613635 270.375 0.613635C272.352 0.613635 274.193 0.903408 275.898 1.48295C277.602 2.05114 279.114 2.85795 280.432 3.90341C281.761 4.94886 282.847 6.19318 283.688 7.63636C284.528 9.06818 285.068 10.6477 285.307 12.375H277.807Z" fill="#FF3B82"/>
</svg>
