<svg width="130" height="130" viewBox="0 0 130 130" fill="none" xmlns="http://www.w3.org/2000/svg">
<rect width="130" height="130" rx="65" fill="#95435C"/>
<rect x="0.5" y="0.5" width="129" height="129" rx="64.5" stroke="black" stroke-opacity="0.05"/>
<path d="M14.0713 69.5V58.22H18.1513L20.4233 68.972H20.9513L23.2233 58.22H27.3033V69.5H25.2393V60.092L25.6233 58.748H25.0793L22.7113 69.5H18.6793L16.2953 58.748H15.7673L16.1353 60.092V69.5H14.0713ZM37.5795 69.5L36.4115 65.564H31.8355L30.6675 69.5H28.5875L31.9955 58.22H36.2355L39.6595 69.5H37.5795ZM32.3635 63.772H35.8675L34.3795 58.748H33.8515L32.3635 63.772ZM40.9463 69.5V58.22H45.0743C45.7889 58.22 46.4183 58.268 46.9623 58.364C47.5063 58.46 48.0023 58.62 48.4503 58.844C48.9089 59.068 49.2556 59.3933 49.4903 59.82C49.7249 60.2467 49.8423 60.764 49.8423 61.372C49.8423 62.8653 48.9889 63.724 47.2823 63.948V64.492H48.8183C49.5969 64.492 49.9863 64.876 49.9863 65.644V69.5H47.9223V65.308H43.0103V69.5H40.9463ZM43.0103 63.516H45.0743C45.4689 63.516 45.7783 63.5107 46.0023 63.5C46.2369 63.4787 46.4823 63.4413 46.7383 63.388C46.9943 63.324 47.1863 63.2333 47.3143 63.116C47.4529 62.988 47.5649 62.8173 47.6503 62.604C47.7356 62.38 47.7783 62.1027 47.7783 61.772C47.7783 61.4413 47.7303 61.164 47.6343 60.94C47.5489 60.716 47.4423 60.5453 47.3143 60.428C47.1969 60.3 47.0049 60.204 46.7383 60.14C46.4823 60.076 46.2423 60.0387 46.0183 60.028C45.7943 60.0173 45.4796 60.012 45.0743 60.012H43.0103V63.516ZM62.0296 58.22L55.2136 63.868L62.0296 69.5H59.0376L53.8696 65.196V69.5H51.8056V58.22H53.8696V62.54L59.0376 58.22H62.0296ZM63.2275 69.5V58.22H70.8595V60.012H65.2915V62.956H70.0595V64.748H65.2915V67.708H70.8595V69.5H63.2275ZM81.7541 58.22V60.012H77.9941V69.5H75.9301V60.012H72.1381V58.22H81.7541ZM90.3601 60.012H87.8161V67.708H90.3601V69.5H83.2081V67.708H85.7521V60.012H83.2081V58.22H90.3601V60.012ZM92.0088 69.5V58.22H96.0888L100.393 68.972H100.921L100.553 67.628V58.22H102.601V69.5H98.5208L94.2328 58.748H93.7048L94.0728 60.092V69.5H92.0088ZM104.099 63.852C104.099 62.156 104.611 60.7693 105.635 59.692C106.669 58.604 108.003 58.06 109.635 58.06C111.032 58.06 112.189 58.4493 113.107 59.228C114.035 59.996 114.584 61.004 114.755 62.252H112.691C112.563 61.4627 112.253 60.8653 111.763 60.46C111.272 60.0547 110.563 59.852 109.635 59.852C108.515 59.852 107.656 60.1987 107.059 60.892C106.461 61.5747 106.163 62.5613 106.163 63.852C106.163 66.5293 107.203 67.868 109.283 67.868C110.2 67.868 110.893 67.6227 111.363 67.132C111.843 66.6307 112.077 65.884 112.067 64.892H108.963V63.324H114.723C115.523 63.324 115.923 63.7133 115.923 64.492V69.5H113.859V65.484L114.243 63.852H113.699C113.688 65.7293 113.309 67.1693 112.563 68.172C111.827 69.164 110.712 69.66 109.219 69.66C107.587 69.66 106.323 69.132 105.427 68.076C104.541 67.0093 104.099 65.6013 104.099 63.852Z" fill="#FAFAFA"/>
</svg>
