<svg width="16" height="13" viewBox="0 0 16 13" fill="none" xmlns="http://www.w3.org/2000/svg">
<path d="M15.0639 8.12501C15.0626 9.31808 14.5881 10.4619 13.7445 11.3055C12.9008 12.1492 11.757 12.6237 10.5639 12.625H4.37642C4.22723 12.625 4.08416 12.5657 3.97867 12.4603C3.87318 12.3548 3.81392 12.2117 3.81392 12.0625C3.81392 11.9133 3.87318 11.7702 3.97867 11.6648C4.08416 11.5593 4.22723 11.5 4.37642 11.5H10.5639C11.459 11.5 12.3175 11.1444 12.9504 10.5115C13.5833 9.87856 13.9389 9.02011 13.9389 8.12501C13.9389 7.2299 13.5833 6.37146 12.9504 5.73852C12.3175 5.10559 11.459 4.75001 10.5639 4.75001H2.35915L4.77439 7.16454C4.87994 7.27009 4.93923 7.41324 4.93923 7.56251C4.93923 7.71177 4.87994 7.85493 4.77439 7.96048C4.66884 8.06602 4.52569 8.12532 4.37642 8.12532C4.22715 8.12532 4.084 8.06602 3.97845 7.96048L0.60345 4.58548C0.551151 4.53324 0.509662 4.4712 0.481354 4.40291C0.453047 4.33463 0.438477 4.26143 0.438477 4.18751C0.438477 4.11359 0.453047 4.04039 0.481354 3.9721C0.509662 3.90382 0.551151 3.84178 0.60345 3.78954L3.97845 0.414539C4.084 0.308991 4.22715 0.249695 4.37642 0.249695C4.52569 0.249695 4.66884 0.308991 4.77439 0.414539C4.87994 0.520087 4.93923 0.66324 4.93923 0.812508C4.93923 0.961775 4.87994 1.10493 4.77439 1.21048L2.35915 3.62501H10.5639C11.757 3.62631 12.9008 4.10083 13.7445 4.94447C14.5881 5.7881 15.0626 6.93193 15.0639 8.12501Z" fill="white"/>
</svg>
