<svg width="19" height="20" viewBox="0 0 19 20" fill="none" xmlns="http://www.w3.org/2000/svg">
<path d="M0.892027 4.81852C0.66536 3.77477 1.23828 2.78227 2.25578 2.45644C2.80578 2.28061 3.50161 2.07311 4.35911 1.84352C5.06417 1.65298 5.77367 1.47932 6.48703 1.32269C7.53078 1.09602 8.52369 1.66894 8.84911 2.68644C9.02494 3.23644 9.23244 3.93227 9.46203 4.78977C9.65257 5.49483 9.82623 6.20434 9.98286 6.91769C10.2095 7.96144 9.63661 8.95436 8.61911 9.27978C8.06911 9.45561 7.37328 9.66311 6.51578 9.89269C5.65828 10.1227 4.95161 10.291 4.38786 10.4135C3.34369 10.6402 2.35119 10.0673 2.02578 9.04978C1.84994 8.49978 1.64244 7.80394 1.41286 6.94644C1.22232 6.24139 1.04866 5.53188 0.892027 4.81852Z" stroke="white" stroke-width="1.25" stroke-linejoin="round"/>
<path d="M5.38379 5.95443V5.95668" stroke="white" stroke-width="1.25" stroke-linecap="round" stroke-linejoin="round"/>
<path d="M17.1079 17.4547C16.7825 18.4722 15.79 19.0451 14.7458 18.8185C14.0325 18.6617 13.323 18.488 12.6179 18.2976C11.912 18.1101 11.2107 17.9058 10.5146 17.6847C9.49707 17.3589 8.92415 16.3664 9.15082 15.3226C9.27332 14.7585 9.44165 14.0522 9.67165 13.1947C9.85932 12.4889 10.0637 11.7876 10.2846 11.0914C10.61 10.0739 11.6029 9.50097 12.6466 9.72764C13.2108 9.85014 13.9171 10.0185 14.7746 10.2485C15.6325 10.4781 16.3283 10.686 16.8779 10.8614C17.8954 11.1868 18.4683 12.1793 18.2416 13.2235C18.085 13.9368 17.9114 14.6463 17.7208 15.3514C17.5331 16.0572 17.3288 16.7585 17.1079 17.4547Z" stroke="white" stroke-width="1.25" stroke-linejoin="round"/>
<path d="M15.1046 13.3893H15.0442M12.168 15.2668V15.2217" stroke="white" stroke-width="1.25" stroke-linecap="round" stroke-linejoin="round"/>
</svg>
