<svg width="16" height="16" viewBox="0 0 16 16" fill="none" xmlns="http://www.w3.org/2000/svg">
<path d="M7.87623 4.62493C7.20872 4.62493 6.5562 4.82287 6.00118 5.19372C5.44617 5.56457 5.01358 6.09167 4.75814 6.70837C4.50269 7.32507 4.43586 8.00367 4.56608 8.65835C4.69631 9.31304 5.01774 9.91441 5.48975 10.3864C5.96175 10.8584 6.56312 11.1799 7.2178 11.3101C7.87249 11.4403 8.55109 11.3735 9.16779 11.118C9.78449 10.8626 10.3116 10.43 10.6824 9.87497C11.0533 9.31996 11.2512 8.66744 11.2512 7.99993C11.2503 7.1051 10.8944 6.2472 10.2617 5.61447C9.62896 4.98173 8.77105 4.62586 7.87623 4.62493ZM7.87623 10.2499C7.43122 10.2499 6.99621 10.118 6.6262 9.87073C6.25619 9.6235 5.9678 9.2721 5.7975 8.86096C5.62721 8.44983 5.58265 7.99743 5.66947 7.56097C5.75628 7.12451 5.97057 6.7236 6.28524 6.40893C6.59991 6.09427 7.00082 5.87997 7.43728 5.79316C7.87374 5.70634 8.32614 5.7509 8.73727 5.9212C9.1484 6.09149 9.49981 6.37988 9.74704 6.74989C9.99427 7.1199 10.1262 7.55492 10.1262 7.99993C10.1262 8.59666 9.88918 9.16896 9.46722 9.59091C9.04527 10.0129 8.47297 10.2499 7.87623 10.2499ZM15.6064 6.53813C15.5907 6.45892 15.5582 6.38401 15.511 6.31849C15.4638 6.25298 15.403 6.19839 15.3329 6.15844L13.2355 4.96313L13.227 2.59922C13.2268 2.51781 13.2088 2.43742 13.1745 2.36361C13.1401 2.28981 13.0902 2.22433 13.028 2.17172C12.2672 1.52815 11.391 1.03496 10.4462 0.718363C10.3717 0.693177 10.2929 0.683856 10.2147 0.691001C10.1364 0.698146 10.0606 0.721599 9.99194 0.759847L7.87623 1.9425L5.75842 0.757738C5.68976 0.719274 5.6138 0.695644 5.53543 0.688377C5.45707 0.68111 5.37806 0.690368 5.3035 0.71555C4.35931 1.03446 3.48416 1.52953 2.72444 2.17453C2.6624 2.22707 2.61248 2.29243 2.57813 2.36611C2.54378 2.43979 2.52581 2.52004 2.52545 2.60133L2.5149 4.96735L0.417482 6.16266C0.347312 6.20261 0.286564 6.2572 0.239368 6.32271C0.192172 6.38823 0.159635 6.46314 0.143967 6.54235C-0.047989 7.50695 -0.047989 8.49993 0.143967 9.46453C0.159635 9.54375 0.192172 9.61865 0.239368 9.68417C0.286564 9.74969 0.347312 9.80427 0.417482 9.84422L2.5149 11.0395L2.52334 13.4034C2.5236 13.4849 2.54152 13.5652 2.57588 13.639C2.61023 13.7129 2.6602 13.7783 2.72233 13.8309C3.48316 14.4745 4.35931 14.9677 5.3042 15.2843C5.37861 15.3095 5.45747 15.3188 5.5357 15.3117C5.61394 15.3045 5.6898 15.2811 5.75842 15.2428L7.87623 14.0573L9.99405 15.2421C10.0779 15.2888 10.1723 15.313 10.2683 15.3124C10.3297 15.3124 10.3907 15.3024 10.449 15.2829C11.3931 14.9644 12.2682 14.4698 13.028 13.8253C13.0901 13.7728 13.14 13.7074 13.1743 13.6337C13.2087 13.5601 13.2267 13.4798 13.227 13.3985L13.2376 11.0325L15.335 9.83719C15.4052 9.79724 15.4659 9.74265 15.5131 9.67714C15.5603 9.61162 15.5928 9.53671 15.6085 9.4575C15.7994 8.49367 15.7987 7.50169 15.6064 6.53813ZM14.5517 8.99274L12.5429 10.1353C12.4549 10.1854 12.382 10.2582 12.3319 10.3463C12.2912 10.4166 12.2483 10.4911 12.2047 10.5614C12.1489 10.6501 12.1191 10.7527 12.1189 10.8574L12.1083 13.125C11.5684 13.549 10.9668 13.8881 10.3245 14.1305L8.29811 13.0013C8.21398 12.9547 8.11933 12.9305 8.02318 12.9309H8.00983C7.92475 12.9309 7.83897 12.9309 7.75389 12.9309C7.65326 12.9284 7.55378 12.9527 7.46561 13.0013L5.43779 14.1333C4.79409 13.8928 4.19089 13.5554 3.64904 13.1327L3.64131 10.8687C3.64096 10.7637 3.61125 10.6609 3.55553 10.572C3.51194 10.5016 3.46904 10.4313 3.42897 10.3568C3.37927 10.2674 3.3064 10.1931 3.21803 10.1416L1.20709 8.99625C1.10303 8.338 1.10303 7.66748 1.20709 7.00922L3.2124 5.86453C3.30042 5.81449 3.37329 5.74161 3.42334 5.6536C3.46412 5.58328 3.50701 5.50875 3.55061 5.43844C3.60641 5.34977 3.63614 5.24719 3.63639 5.14243L3.64694 2.87485C4.18689 2.45083 4.78843 2.11176 5.43076 1.86938L7.45436 2.9986C7.54243 3.04741 7.64198 3.0717 7.74264 3.06891C7.82772 3.06891 7.9135 3.06891 7.99858 3.06891C8.0992 3.07142 8.19869 3.04716 8.28686 2.9986L10.3147 1.86657C10.9584 2.10709 11.5616 2.44449 12.1034 2.86711L12.1112 5.13117C12.1115 5.23615 12.1412 5.33893 12.1969 5.42789C12.2405 5.49821 12.2834 5.56852 12.3235 5.64305C12.3732 5.73243 12.4461 5.80675 12.5344 5.85821L14.5454 7.0036C14.6508 7.66236 14.652 8.33361 14.5489 8.99274H14.5517Z" fill="white"/>
</svg>
