<svg width="20" height="15" viewBox="0 0 20 15" fill="none" xmlns="http://www.w3.org/2000/svg">
<path d="M6.79094 0.920159C7.85676 0.451907 8.94212 0.428866 9.91245 0.591151C10.8788 0.752792 11.7517 1.1013 12.4117 1.39788C12.5773 1.47231 12.7307 1.54435 12.8686 1.60912C13.0082 1.67466 13.1285 1.73137 13.2344 1.77931C13.3415 1.82772 13.4218 1.86168 13.4811 1.88287C13.4996 1.88944 13.5132 1.89317 13.5222 1.89582C13.5351 1.89482 13.5546 1.89376 13.5817 1.89077C13.6352 1.88486 13.7047 1.87569 13.7897 1.8633C13.9594 1.83854 14.179 1.8024 14.4341 1.75878C14.9448 1.67147 15.5814 1.55605 16.2196 1.44272C16.8546 1.32995 17.4908 1.21942 17.9901 1.14371C18.2389 1.10598 18.4608 1.07597 18.6345 1.05877C18.7207 1.05024 18.803 1.04385 18.8747 1.04235C18.8952 1.04193 18.929 1.04172 18.9697 1.04393C19.0046 1.04217 19.052 1.04268 19.1055 1.05404C19.2113 1.07654 19.4149 1.16359 19.482 1.40073C19.5323 1.57851 19.4627 1.71685 19.4478 1.74615C19.4236 1.79379 19.3965 1.82733 19.3844 1.84182L19.3714 1.85698L19.3574 1.87151L19.3548 1.87403C19.3529 1.8759 19.35 1.87882 19.3463 1.88256C19.3389 1.8901 19.3277 1.90152 19.3131 1.91634C19.2839 1.94598 19.241 1.98982 19.1859 2.04611C19.0755 2.15875 18.9168 2.32146 18.7237 2.52131C18.3373 2.9212 17.8139 3.46913 17.265 4.06184C16.7155 4.65511 16.1431 5.29044 15.6578 5.86571C15.1657 6.44922 14.7857 6.9449 14.6014 7.26667C14.1781 8.00576 13.9459 8.96334 13.8418 10.1163C13.7378 11.2666 13.7639 12.5737 13.8304 13.993C13.8428 14.2605 13.6296 14.4873 13.3539 14.4995C13.0781 14.5117 12.8444 14.3045 12.8318 14.0369C12.765 12.611 12.7358 11.2499 12.8458 10.0317C12.9557 8.81616 13.2067 7.70449 13.7272 6.79558C13.9595 6.38989 14.3919 5.83483 14.8839 5.25158C15.2275 4.84424 15.6115 4.41042 15.9983 3.98417C15.9731 4.00145 15.9479 4.01869 15.9228 4.03595C15.1501 4.56642 14.3912 5.08956 13.8525 5.44166C13.5876 5.61482 13.3574 5.75895 13.2012 5.84076C13.1611 5.86179 13.1168 5.8832 13.0727 5.90107C13.0451 5.91224 12.9568 5.94851 12.8494 5.95285C12.7979 5.95492 12.6553 5.95426 12.5175 5.85497C12.3485 5.73319 12.3078 5.55649 12.3118 5.43976C12.3152 5.34138 12.3479 5.26704 12.3625 5.23611C12.3805 5.19814 12.4003 5.16684 12.4153 5.14517C12.4763 5.05649 12.5649 4.97759 12.6278 4.92415C12.7022 4.86087 12.7939 4.78995 12.8963 4.71449C13.1017 4.56304 13.3707 4.37827 13.6767 4.17551C14.2901 3.76918 15.0715 3.27763 15.8339 2.80927C16.0779 2.65938 16.3205 2.51153 16.5555 2.36944C16.5037 2.37859 16.4518 2.38768 16.3999 2.39691C15.7675 2.50921 15.123 2.62618 14.6079 2.71423C14.3502 2.75829 14.1205 2.79562 13.9381 2.82222C13.7717 2.84649 13.6035 2.86838 13.4945 2.86769C13.3557 2.86679 13.2223 2.82393 13.1362 2.79317C13.0363 2.75753 12.9253 2.70959 12.812 2.65835C12.6976 2.6066 12.5682 2.54576 12.4328 2.48216C12.2958 2.41781 12.1486 2.34894 11.9912 2.27819C11.3588 1.99401 10.5798 1.68696 9.74256 1.54692C8.90915 1.40753 8.0384 1.43691 7.20363 1.80362C6.37192 2.16902 5.52276 2.89265 4.7721 4.23424C4.66107 4.43268 4.46317 4.93366 4.19766 5.64152C3.94049 6.32713 3.63131 7.17399 3.30947 8.00647C2.9876 8.83902 2.64645 9.67447 2.31974 10.3465C2.15661 10.682 1.99235 10.987 1.83089 11.2344C1.6789 11.4672 1.49499 11.7038 1.27793 11.8447C1.04848 11.9937 0.737923 11.9341 0.584374 11.7114C0.430918 11.4888 0.492626 11.1875 0.722045 11.0386C0.755033 11.0171 0.846268 10.9293 0.985995 10.7153C1.1164 10.5155 1.26076 10.2504 1.41528 9.93253C1.7239 9.29773 2.05374 8.49272 2.37344 7.66578C2.69317 6.83876 2.99659 6.00704 3.25805 5.30999C3.51114 4.63524 3.73791 4.04917 3.89335 3.77136C4.7257 2.2838 5.7221 1.38978 6.79094 0.920159Z" fill="white"/>
<path d="M10.8316 4.16509C10.8316 4.61151 10.4585 4.9734 9.99837 4.9734C9.53822 4.9734 9.16519 4.61151 9.16519 4.16509C9.16519 3.71867 9.53822 3.35678 9.99837 3.35678C10.4585 3.35678 10.8316 3.71867 10.8316 4.16509Z" fill="white"/>
</svg>
