<svg width="27" height="18" viewBox="0 0 27 18" fill="none" xmlns="http://www.w3.org/2000/svg">
<path d="M23.454 0.0184112C23.6443 -0.0387917 23.8849 0.0509047 23.9478 0.102436C24.0217 0.151441 24.0657 0.19901 24.1008 0.241512C24.6376 0.868547 25.7669 1.4395 26.4426 2.40555C26.9026 3.21138 26.7876 3.8748 26.4813 4.56058C26.3684 4.78285 26.2125 4.99358 26.0179 5.17258C25.9173 5.26524 25.7809 5.31745 25.6387 5.31745C25.4965 5.31743 25.36 5.26527 25.2594 5.17258C25.1589 5.07988 25.1023 4.95405 25.1023 4.82296C25.1023 4.69181 25.1588 4.56575 25.2594 4.47302C25.3615 4.37895 25.4455 4.26717 25.5102 4.14014C25.7104 3.78523 25.6962 3.16655 25.55 2.95445C25.1652 2.38673 24.5623 2.01441 23.9258 1.48096C23.919 1.58676 23.9139 1.69371 23.9094 1.80096C23.8907 2.25969 23.8874 2.72581 23.8905 3.19075C23.8981 4.12256 23.9304 5.05853 23.9883 5.98804C24.0002 6.17503 24.0141 6.37104 24.0292 6.55625C24.0398 6.68703 23.9934 6.81644 23.9007 6.91585C23.8079 7.01521 23.6761 7.07667 23.5343 7.08648C23.3925 7.09629 23.2521 7.05355 23.1443 6.96801C23.0365 6.88248 22.9698 6.76103 22.9592 6.6303C22.9436 6.43845 22.9294 6.23734 22.9173 6.04599C22.8581 5.09544 22.8256 4.14901 22.8178 3.19751C22.8146 2.72235 22.8177 2.24572 22.8373 1.7633C22.8476 1.52211 22.8612 1.28171 22.8886 1.02832C22.9034 0.898857 22.9185 0.777267 22.9518 0.627189C22.9709 0.549797 22.9857 0.4746 23.0454 0.351291C23.0619 0.318873 23.0899 0.269048 23.1317 0.219298C23.1597 0.18529 23.2685 0.0632519 23.454 0.0184112ZM23.2424 0.834837C23.2489 0.842521 23.2587 0.854013 23.2752 0.868962C23.2645 0.857485 23.2531 0.846474 23.2424 0.834837Z" fill="white"/>
<path d="M19.3233 3.33086C19.3583 3.33007 19.415 3.33072 19.4815 3.34342L19.551 3.36048L19.6711 3.3975L19.7605 3.47992C20.0096 3.70969 19.9 3.99058 19.8841 4.02946C19.8532 4.10542 19.8084 4.16412 19.785 4.19365C19.7315 4.26086 19.6605 4.33129 19.5922 4.39518C19.4498 4.52847 19.2442 4.70242 19.0066 4.89804C18.7668 5.09548 18.4834 5.32383 18.1821 5.56734C17.8797 5.81164 17.5578 6.07277 17.2361 6.33838C16.5895 6.87214 15.9574 7.41468 15.5008 7.86982C15.2711 8.09885 15.1004 8.29128 14.9955 8.43964C14.9872 8.45142 14.9802 8.46293 14.9732 8.47344C15.0669 8.51861 15.199 8.56995 15.3723 8.62379C15.8021 8.75732 16.3827 8.8791 16.9937 8.98757C17.6009 9.09537 18.2142 9.18608 18.7087 9.26154C18.9533 9.29887 19.1728 9.33283 19.3432 9.36327C19.4281 9.37844 19.5072 9.39386 19.5744 9.40931C19.6144 9.4185 19.6758 9.43317 19.7382 9.45567L19.8 9.48078L19.8485 9.50621C19.9061 9.53984 19.9857 9.60016 20.042 9.70098C20.1316 9.86161 20.1081 10.0241 20.0538 10.1349C20.0086 10.2274 19.9445 10.2841 19.9163 10.3072C19.8827 10.3347 19.8514 10.3537 19.8318 10.3648C19.7649 10.4028 19.6905 10.4285 19.6512 10.4418C19.5531 10.4748 19.4152 10.5129 19.2632 10.5528C18.9554 10.6337 18.5182 10.7401 18.0696 10.8525C17.6149 10.9665 17.1404 11.0888 16.736 11.207C16.3125 11.3307 16.0241 11.4336 15.9024 11.5009C15.2058 11.8863 14.8133 12.5942 14.6275 13.653C14.4411 14.7151 14.4811 16.0239 14.5531 17.4828C14.5665 17.7556 14.3377 17.987 14.0418 17.9995C13.7459 18.0119 13.4952 17.8007 13.4817 17.5278C13.4106 16.0858 13.3613 14.6748 13.5683 13.4953C13.7758 12.3125 14.2594 11.2566 15.3507 10.6529C15.5966 10.5169 16.0037 10.3832 16.4116 10.264C16.6732 10.1876 16.96 10.1111 17.2476 10.0364C17.0964 10.0115 16.9434 9.98561 16.7908 9.95853C16.1699 9.8483 15.531 9.71666 15.0298 9.56094C14.7814 9.48379 14.5407 9.39287 14.347 9.28311C14.1811 9.18904 13.9154 9.00727 13.8491 8.70137C13.8102 8.52186 13.8552 8.35809 13.9008 8.24487C13.9491 8.12491 14.0201 8.00775 14.0967 7.89943C14.2501 7.68239 14.4679 7.4426 14.713 7.19826C15.2062 6.70662 15.8705 6.13779 16.5202 5.60147C16.7057 5.44828 16.8912 5.29684 17.0723 5.14979C17.0705 5.15048 17.0688 5.15136 17.067 5.15205C16.4777 5.38492 15.8727 5.62518 15.3821 5.80654C15.1371 5.8971 14.9126 5.97576 14.7284 6.03254C14.6366 6.06084 14.548 6.08572 14.4679 6.10401C14.3978 6.11999 14.296 6.14036 14.1927 6.13974C14.0438 6.13883 13.9007 6.09513 13.8082 6.06377C13.7011 6.02743 13.5819 5.97854 13.4604 5.9263C13.3377 5.87353 13.1989 5.8115 13.0536 5.74666C12.9065 5.68104 12.7486 5.61083 12.5797 5.53869C11.9011 5.24894 11.0654 4.93588 10.167 4.79309C9.27276 4.65097 8.33848 4.68092 7.44279 5.05482C6.5504 5.42738 5.63927 6.16519 4.83384 7.53307C4.7147 7.73543 4.50237 8.24621 4.21748 8.96793C3.94155 9.66698 3.60981 10.5304 3.26449 11.3792C2.91913 12.2281 2.55308 13.0799 2.20254 13.7651C2.0275 14.1072 1.85126 14.4181 1.67802 14.6704C1.51493 14.9078 1.31761 15.149 1.08471 15.2927C0.838512 15.4445 0.505296 15.3838 0.340542 15.1568C0.175867 14.9298 0.242091 14.6226 0.488259 14.4708C0.52364 14.4489 0.621522 14.3594 0.771469 14.1411C0.911398 13.9374 1.06628 13.6671 1.23208 13.343C1.56322 12.6958 1.91712 11.875 2.26015 11.0319C2.60321 10.1886 2.92877 9.34061 3.20931 8.6299C3.48087 7.94193 3.72418 7.34437 3.89097 7.06112C4.78405 5.54441 5.85316 4.63288 6.99999 4.15405C8.14359 3.67662 9.30814 3.65313 10.3493 3.81859C11.3862 3.9834 12.3227 4.33874 13.0309 4.64114C13.2086 4.71701 13.3732 4.79047 13.5212 4.85651C13.6709 4.92333 13.8 4.98116 13.9137 5.03003C14.0284 5.07936 14.1147 5.11369 14.1784 5.13531C14.1899 5.13922 14.2001 5.14156 14.2081 5.144H14.2098C14.2516 5.13445 14.3107 5.11863 14.3883 5.09474C14.5428 5.04711 14.7443 4.97645 14.9826 4.88838C15.4585 4.71246 16.0494 4.47806 16.6445 4.2429C17.2348 4.00967 17.8301 3.77537 18.3012 3.60644C18.5356 3.52237 18.7505 3.45059 18.9238 3.40266C19.0094 3.37898 19.0975 3.35733 19.1794 3.34439C19.2204 3.33791 19.2702 3.33208 19.3233 3.33086Z" fill="white"/>
<path d="M11.3354 7.4616C11.3354 7.91677 10.9352 8.28576 10.4415 8.28576C9.94774 8.28576 9.54749 7.91677 9.54749 7.4616C9.54749 7.00644 9.94774 6.63745 10.4415 6.63745C10.9352 6.63745 11.3354 7.00644 11.3354 7.4616Z" fill="white"/>
<path d="M24.03 6.63745C24.03 7.27468 23.1307 8.28576 22.242 8.28576C21.1692 8.28576 20.6328 7.60435 20.6328 6.96711C20.6328 6.32988 21.3533 5.64847 22.242 5.64847C23.1307 5.64847 23.8512 5.97813 24.03 6.63745Z" fill="white"/>
</svg>
