<svg width="17" height="15" viewBox="0 0 17 15" fill="none" xmlns="http://www.w3.org/2000/svg">
<path d="M12.375 3.78125C12.375 3.94813 12.3255 4.11126 12.2328 4.25001C12.1401 4.38877 12.0083 4.49691 11.8541 4.56077C11.7 4.62464 11.5303 4.64134 11.3666 4.60879C11.203 4.57623 11.0526 4.49587 10.9346 4.37787C10.8166 4.25987 10.7363 4.10953 10.7037 3.94586C10.6712 3.78219 10.6879 3.61254 10.7517 3.45836C10.8156 3.30419 10.9237 3.17241 11.0625 3.0797C11.2012 2.98699 11.3644 2.9375 11.5313 2.9375C11.755 2.9375 11.9696 3.0264 12.1279 3.18463C12.2861 3.34286 12.375 3.55747 12.375 3.78125ZM16.875 4.625C16.8751 4.71763 16.8522 4.80884 16.8086 4.89053C16.7649 4.97223 16.7017 5.04187 16.6247 5.09328L15.1875 6.05094V7.4375C15.1855 9.37627 14.4144 11.235 13.0435 12.606C11.6725 13.9769 9.81377 14.748 7.875 14.75H1.6875C1.47555 14.75 1.26791 14.6901 1.0885 14.5773C0.909096 14.4644 0.765216 14.3032 0.673439 14.1121C0.581663 13.9211 0.545722 13.708 0.569758 13.4974C0.593794 13.2868 0.676829 13.0873 0.809298 12.9219L0.816329 12.9134L6.75 5.7943V4.40633C6.75 2.05648 8.63367 0.13625 10.9484 0.125H10.9688C11.8649 0.124733 12.7379 0.409864 13.4612 0.939063C14.1844 1.46826 14.7204 2.21403 14.9913 3.06828L16.6247 4.15672C16.7017 4.20813 16.7649 4.27777 16.8086 4.35947C16.8522 4.44116 16.8751 4.53237 16.875 4.625ZM15.2986 4.625L14.1961 3.88953C14.0811 3.81304 13.9983 3.69692 13.9634 3.56328C13.7906 2.90064 13.4029 2.31405 12.861 1.89542C12.319 1.47679 11.6535 1.2498 10.9688 1.25H10.9533C9.25594 1.25844 7.875 2.67383 7.875 4.40633V5.9975C7.87523 6.12926 7.82919 6.25691 7.74492 6.3582L1.6875 13.625H3.57891L8.56688 7.64C8.61362 7.58161 8.67154 7.53313 8.73725 7.49739C8.80295 7.46165 8.87513 7.43938 8.94954 7.43187C9.02396 7.42437 9.09913 7.43177 9.17065 7.45367C9.24217 7.47556 9.30861 7.5115 9.36607 7.55938C9.42354 7.60726 9.47087 7.66612 9.50532 7.73251C9.53976 7.7989 9.56061 7.8715 9.56666 7.94605C9.57271 8.0206 9.56383 8.09561 9.54054 8.16669C9.51725 8.23777 9.48001 8.30348 9.43102 8.36L5.04492 13.625H7.875C9.51546 13.6231 11.0882 12.9706 12.2482 11.8107C13.4081 10.6507 14.0606 9.07796 14.0625 7.4375V5.75C14.0624 5.65737 14.0853 5.56616 14.1289 5.48447C14.1726 5.40277 14.2358 5.33313 14.3128 5.28172L15.2986 4.625Z" fill="white"/>
</svg>
